<svg width="1200" height="630" viewBox="0 0 1200 630" xmlns="http://www.w3.org/2000/svg"><rect x="0" y="0" width="1200" height="630" fill="#fefbfb"/><defs><clipPath id="satori_bc-id-0-0"><path x="105" y="39" width="1056" height="504" d="M109,39 h1048 a4,4 0 0 1 4,4 v496 a4,4 0 0 1 -4,4 h-1048 a4,4 0 0 1 -4,-4 v-496 a4,4 0 0 1 4,-4"/></clipPath></defs><g opacity="0.9"><path x="105" y="39" width="1056" height="504" fill="#ecebeb" d="M109,39 h1048 a4,4 0 0 1 4,4 v496 a4,4 0 0 1 -4,4 h-1048 a4,4 0 0 1 -4,-4 v-496 a4,4 0 0 1 4,-4"/><path width="1056" height="504" clip-path="url(#satori_bc-id-0-0)" fill="none" stroke="#000" stroke-width="8" d="M106.172,40.172 A4,4 0 0 1 109,39 h1048 a4,4 0 0 1 4,4 v496 a4,4 0 0 1 -4,4 h-1048 a4,4 0 0 1 -4,-4 v-496 A4,4 0 0 1 106.172,40.172"/></g><defs><clipPath id="satori_bc-id-0-1"><path x="72" y="63" width="1056" height="504" d="M76,63 h1048 a4,4 0 0 1 4,4 v496 a4,4 0 0 1 -4,4 h-1048 a4,4 0 0 1 -4,-4 v-496 a4,4 0 0 1 4,-4"/></clipPath></defs><path x="72" y="63" width="1056" height="504" fill="#fefbfb" d="M76,63 h1048 a4,4 0 0 1 4,4 v496 a4,4 0 0 1 -4,4 h-1048 a4,4 0 0 1 -4,-4 v-496 a4,4 0 0 1 4,-4"/><path width="1056" height="504" clip-path="url(#satori_bc-id-0-1)" fill="none" stroke="#000" stroke-width="8" d="M73.172,64.172 A4,4 0 0 1 76,63 h1048 a4,4 0 0 1 4,4 v496 a4,4 0 0 1 -4,4 h-1048 a4,4 0 0 1 -4,-4 v-496 A4,4 0 0 1 73.172,64.172"/><clipPath id="satori_cp-id-0-1-0-0"><rect x="128" y="103" width="944" height="94"/></clipPath><mask id="satori_om-id-0-1-0-0"><rect x="128" y="103" width="944" height="94" fill="#fff"/></mask><path fill="black" d="M143.3 183.0L132.7 183.0L132.7 145.8L143.3 145.8L143.3 152.6L143.8 152.6Q144.4 151.0 145.4 149.6Q146.3 148.2 147.6 147.2Q149.0 146.2 150.7 145.5Q152.5 144.9 154.7 144.9L154.7 144.9Q157.4 144.9 159.6 145.8Q161.8 146.7 163.4 148.5Q165.0 150.3 165.9 152.9Q166.8 155.5 166.8 158.9L166.8 158.9L166.8 183.0L156.2 183.0L156.2 160.3Q156.2 153.1 149.9 153.1L149.9 153.1Q148.7 153.1 147.5 153.5Q146.3 153.8 145.4 154.5Q144.4 155.2 143.9 156.2Q143.3 157.2 143.3 158.5L143.3 158.5L143.3 183.0ZM193.8 183.8L193.8 183.8Q184.4 183.8 179.6 178.6Q174.8 173.4 174.8 164.5L174.8 164.5Q174.8 160.0 176.1 156.3Q177.3 152.7 179.7 150.2Q182 147.6 185.3 146.3Q188.7 144.9 192.9 144.9L192.9 144.9Q197.0 144.9 200.4 146.3Q203.7 147.6 206.0 150.0Q208.3 152.5 209.5 156.0Q210.8 159.5 210.8 163.8L210.8 163.8L210.8 167.0L185.4 167.0L185.4 167.6Q185.4 171.2 187.6 173.4Q189.8 175.6 194.2 175.6L194.2 175.6Q197.5 175.6 199.9 174.3Q202.2 173.1 204.0 171.0L204.0 171.0L209.7 177.3Q207.6 179.9 203.7 181.9Q199.8 183.8 193.8 183.8ZM192.9 152.6L192.9 152.6Q189.5 152.6 187.4 154.7Q185.4 156.8 185.4 160.4L185.4 160.4L185.4 161.0L200.4 161.0L200.4 160.4Q200.4 156.7 198.4 154.7Q196.4 152.6 192.9 152.6ZM225.1 183.0L216.6 183.0L216.6 145.8L225.1 145.8L225.1 151.3L225.6 151.3Q226.5 148.7 228.1 146.8Q229.7 144.9 232.7 144.9L232.7 144.9Q238.1 144.9 239.3 151.3L239.3 151.3L239.7 151.3Q240.2 150.0 240.8 148.8Q241.5 147.7 242.4 146.8Q243.3 145.9 244.6 145.4Q245.9 144.9 247.7 144.9L247.7 144.9Q255.4 144.9 255.4 156.4L255.4 156.4L255.4 183.0L246.9 183.0L246.9 157.5Q246.9 154.9 246.0 153.8Q245.1 152.8 243.6 152.8L243.6 152.8Q242.3 152.8 241.3 153.7Q240.3 154.6 240.3 156.5L240.3 156.5L240.3 183.0L231.7 183.0L231.7 157.5Q231.7 154.9 230.9 153.8Q230.0 152.8 228.6 152.8L228.6 152.8Q227.1 152.8 226.1 153.7Q225.1 154.6 225.1 156.5L225.1 156.5L225.1 183.0ZM285.5 183.0L285.5 176.2L285.0 176.2Q283.8 179.4 281.2 181.6Q278.6 183.8 274.1 183.8L274.1 183.8Q271.4 183.8 269.2 182.9Q267.0 182.0 265.4 180.2Q263.8 178.4 262.9 175.8Q262.0 173.2 262.0 169.8L262.0 169.8L262.0 145.8L272.6 145.8L272.6 168.4Q272.6 175.6 278.9 175.6L278.9 175.6Q280.1 175.6 281.3 175.3Q282.5 175.0 283.4 174.3Q284.3 173.6 284.9 172.6Q285.5 171.6 285.5 170.2L285.5 170.2L285.5 145.8L296.1 145.8L296.1 183.0L285.5 183.0ZM306.1 183.0L306.1 174.7L314.7 174.7L314.7 154.1L306.1 154.1L306.1 145.8L325.4 145.8L325.4 156.3L325.9 156.3Q326.4 154.3 327.3 152.4Q328.2 150.5 329.6 149.0Q331.0 147.5 333.0 146.7Q335.0 145.8 337.7 145.8L337.7 145.8L341.3 145.8L341.3 155.6L333.3 155.6Q329.4 155.6 327.4 157.9Q325.4 160.3 325.4 163.7L325.4 163.7L325.4 174.7L337.6 174.7L337.6 183.0L306.1 183.0ZM371.9 183.0L371.9 176.2L371.4 176.2Q370.2 179.4 367.6 181.6Q365.0 183.8 360.5 183.8L360.5 183.8Q357.8 183.8 355.6 182.9Q353.4 182.0 351.8 180.2Q350.2 178.4 349.3 175.8Q348.4 173.2 348.4 169.8L348.4 169.8L348.4 145.8L359.0 145.8L359.0 168.4Q359.0 175.6 365.3 175.6L365.3 175.6Q366.5 175.6 367.7 175.3Q368.9 175.0 369.8 174.3Q370.7 173.6 371.3 172.6Q371.9 171.6 371.9 170.2L371.9 170.2L371.9 145.8L382.5 145.8L382.5 183.0L371.9 183.0ZM391.4 183.0L391.4 129.7L402.1 129.7L402.1 152.6L402.6 152.6Q404.0 149.3 406.6 147.1Q409.2 144.9 413.6 144.9L413.6 144.9Q416.7 144.9 419.3 146.1Q421.8 147.2 423.7 149.6Q425.5 152.0 426.5 155.7Q427.6 159.3 427.6 164.4L427.6 164.4Q427.6 169.4 426.5 173.1Q425.5 176.8 423.7 179.1Q421.8 181.5 419.3 182.7Q416.7 183.8 413.6 183.8L413.6 183.8Q409.2 183.8 406.6 181.7Q404.0 179.6 402.6 176.2L402.6 176.2L402.1 176.2L402.1 183.0L391.4 183.0ZM409.0 175.5L409.0 175.5Q412.6 175.5 414.6 173.3Q416.5 171.1 416.5 167.3L416.5 167.3L416.5 161.5Q416.5 157.6 414.6 155.4Q412.6 153.2 409.0 153.2L409.0 153.2Q406.2 153.2 404.2 154.6Q402.1 156.0 402.1 158.9L402.1 158.9L402.1 169.8Q402.1 172.8 404.2 174.2Q406.2 175.5 409.0 175.5ZM471.6 183.0L465.5 183.0Q462.2 183.0 460.1 181.3Q458.1 179.6 457.8 176.4L457.8 176.4L457.4 176.4Q456.4 180.1 453.4 181.9Q450.4 183.8 446.1 183.8L446.1 183.8Q440.7 183.8 437.4 180.9Q434.1 178.0 434.1 172.7L434.1 172.7Q434.1 166.9 438.4 164.1Q442.6 161.3 450.8 161.3L450.8 161.3L456.8 161.3L456.8 159.4Q456.8 156.1 455.3 154.4Q453.7 152.7 450.1 152.7L450.1 152.7Q446.7 152.7 444.6 154.0Q442.5 155.3 441.0 157.4L441.0 157.4L435.2 152.2Q437.0 149.0 441.0 147.0Q445.0 144.9 451.3 144.9L451.3 144.9Q458.9 144.9 463.2 148.4Q467.5 151.9 467.5 159.0L467.5 159.0L467.5 175.2L471.6 175.2L471.6 183.0ZM450.1 176.8L450.1 176.8Q452.9 176.8 454.9 175.5Q456.8 174.1 456.8 171.5L456.8 171.5L456.8 167.0L451.1 167.0Q444.6 167.0 444.6 171.4L444.6 171.4L444.6 172.9Q444.6 174.8 446.1 175.8Q447.6 176.8 450.1 176.8ZM478.3 183.0L478.3 129.7L488.9 129.7L488.9 159.9L489.4 159.9L494.4 154.1L502.2 145.8L514.4 145.8L500.0 160.5L515.9 183.0L503.3 183.0L492.5 166.5L488.9 170.1L488.9 183.0L478.3 183.0ZM558.0 183.0L551.9 183.0Q548.6 183.0 546.5 181.3Q544.5 179.6 544.2 176.4L544.2 176.4L543.8 176.4Q542.8 180.1 539.8 181.9Q536.8 183.8 532.5 183.8L532.5 183.8Q527.1 183.8 523.8 180.9Q520.5 178.0 520.5 172.7L520.5 172.7Q520.5 166.9 524.8 164.1Q529.0 161.3 537.2 161.3L537.2 161.3L543.2 161.3L543.2 159.4Q543.2 156.1 541.7 154.4Q540.1 152.7 536.5 152.7L536.5 152.7Q533.1 152.7 531.0 154.0Q528.9 155.3 527.4 157.4L527.4 157.4L521.6 152.2Q523.4 149.0 527.4 147.0Q531.4 144.9 537.7 144.9L537.7 144.9Q545.3 144.9 549.6 148.4Q553.9 151.9 553.9 159.0L553.9 159.0L553.9 175.2L558.0 175.2L558.0 183.0ZM536.5 176.8L536.5 176.8Q539.3 176.8 541.3 175.5Q543.2 174.1 543.2 171.5L543.2 171.5L543.2 167.0L537.5 167.0Q531.0 167.0 531.0 171.4L531.0 171.4L531.0 172.9Q531.0 174.8 532.5 175.8Q534.0 176.8 536.5 176.8Z " clip-path="url(#satori_cp-id-0-1-0-0)" mask="url(#satori_om-id-0-1-0-0)"/><path fill="black" d="M130.7 520.3L130.7 499.6L132.9 499.6L132.9 508.2L133.0 508.2Q134.4 505.5 137.5 505.5L137.5 505.5Q140.1 505.5 141.6 507.5Q143.1 509.5 143.1 513.0L143.1 513.0Q143.1 516.6 141.6 518.6Q140.1 520.6 137.5 520.6L137.5 520.6Q134.4 520.6 133.0 517.9L133.0 517.9L132.9 517.9L132.9 520.3L130.7 520.3ZM136.6 518.6L136.6 518.6Q138.6 518.6 139.6 517.4Q140.7 516.2 140.7 514.3L140.7 514.3L140.7 511.8Q140.7 509.9 139.6 508.7Q138.6 507.5 136.6 507.5L136.6 507.5Q135.8 507.5 135.2 507.7Q134.5 507.9 134.0 508.2Q133.5 508.6 133.2 509.2Q132.9 509.7 132.9 510.4L132.9 510.4L132.9 515.7Q132.9 516.4 133.2 516.9Q133.5 517.5 134.0 517.8Q134.5 518.2 135.2 518.4Q135.8 518.6 136.6 518.6ZM155.4 511.9L157.9 505.8L160.1 505.8L152.9 523.4Q152.7 524.1 152.4 524.5Q152.1 525.0 151.7 525.3Q151.2 525.6 150.7 525.7Q150.1 525.9 149.3 525.9L149.3 525.9L147.1 525.9L147.1 524.0L150.5 524.0L152.1 520.0L146.3 505.8L148.6 505.8L151.0 511.9L153.2 517.4L153.3 517.4L155.4 511.9Z "/><clipPath id="satori_cp-id-0-1-0-1-0-2"><rect x="178" y="489" width="168" height="36"/></clipPath><mask id="satori_om-id-0-1-0-1-0-2"><rect x="178" y="489" width="168" height="36" fill="#fff"/></mask><path fill="black" d="M184.0 520.1L179.8 520.1L179.8 505.6L184.0 505.6L184.0 508.3L184.1 508.3Q184.4 507.7 184.7 507.1Q185.1 506.6 185.6 506.2Q186.1 505.8 186.8 505.5Q187.5 505.3 188.4 505.3L188.4 505.3Q189.4 505.3 190.3 505.7Q191.2 506.0 191.8 506.7Q192.4 507.4 192.7 508.4Q193.1 509.4 193.1 510.7L193.1 510.7L193.1 520.1L188.9 520.1L188.9 511.3Q188.9 508.5 186.5 508.5L186.5 508.5Q186.0 508.5 185.6 508.6Q185.1 508.8 184.7 509.0Q184.4 509.3 184.2 509.7Q184.0 510.1 184.0 510.6L184.0 510.6L184.0 520.1ZM203.6 520.4L203.6 520.4Q200.0 520.4 198.1 518.4Q196.2 516.4 196.2 512.9L196.2 512.9Q196.2 511.2 196.7 509.7Q197.2 508.3 198.1 507.3Q199 506.3 200.3 505.8Q201.6 505.3 203.2 505.3L203.2 505.3Q204.9 505.3 206.1 505.8Q207.4 506.3 208.3 507.3Q209.2 508.2 209.7 509.6Q210.2 511.0 210.2 512.6L210.2 512.6L210.2 513.9L200.3 513.9L200.3 514.1Q200.3 515.5 201.2 516.4Q202.1 517.2 203.7 517.2L203.7 517.2Q205.0 517.2 205.9 516.7Q206.9 516.3 207.5 515.4L207.5 515.4L209.8 517.9Q208.9 518.9 207.4 519.7Q205.9 520.4 203.6 520.4ZM203.3 508.3L203.3 508.3Q201.9 508.3 201.1 509.1Q200.3 509.9 200.3 511.3L200.3 511.3L200.3 511.6L206.1 511.6L206.1 511.3Q206.1 509.9 205.4 509.1Q204.6 508.3 203.3 508.3ZM215.8 520.1L212.4 520.1L212.4 505.6L215.8 505.6L215.8 507.8L216.0 507.8Q216.3 506.8 216.9 506.0Q217.6 505.3 218.7 505.3L218.7 505.3Q220.8 505.3 221.3 507.8L221.3 507.8L221.5 507.8Q221.6 507.3 221.9 506.8Q222.1 506.4 222.5 506.0Q222.9 505.7 223.4 505.5Q223.9 505.3 224.5 505.3L224.5 505.3Q227.6 505.3 227.6 509.8L227.6 509.8L227.6 520.1L224.2 520.1L224.2 510.2Q224.2 509.2 223.9 508.8Q223.5 508.4 223.0 508.4L223.0 508.4Q222.4 508.4 222.1 508.7Q221.7 509.1 221.7 509.8L221.7 509.8L221.7 520.1L218.3 520.1L218.3 510.2Q218.3 509.2 218.0 508.8Q217.7 508.4 217.1 508.4L217.1 508.4Q216.6 508.4 216.2 508.7Q215.8 509.1 215.8 509.8L215.8 509.8L215.8 520.1ZM239.2 520.1L239.2 517.5L239.1 517.5Q238.6 518.7 237.6 519.6Q236.5 520.4 234.8 520.4L234.8 520.4Q233.8 520.4 232.9 520.1Q232.0 519.7 231.4 519.0Q230.8 518.3 230.5 517.3Q230.1 516.3 230.1 515.0L230.1 515.0L230.1 505.6L234.3 505.6L234.3 514.4Q234.3 517.2 236.7 517.2L236.7 517.2Q237.2 517.2 237.6 517.1Q238.1 517.0 238.4 516.7Q238.8 516.5 239.0 516.1Q239.2 515.7 239.2 515.1L239.2 515.1L239.2 505.6L243.4 505.6L243.4 520.1L239.2 520.1ZM247.3 520.1L247.3 516.9L250.6 516.9L250.6 508.9L247.3 508.9L247.3 505.6L254.7 505.6L254.7 509.7L254.9 509.7Q255.1 508.9 255.5 508.2Q255.8 507.5 256.4 506.9Q256.9 506.3 257.7 506.0Q258.5 505.6 259.6 505.6L259.6 505.6L260.9 505.6L260.9 509.5L257.9 509.5Q256.3 509.5 255.5 510.4Q254.7 511.3 254.7 512.6L254.7 512.6L254.7 516.9L259.5 516.9L259.5 520.1L247.3 520.1ZM272.8 520.1L272.8 517.5L272.7 517.5Q272.2 518.7 271.2 519.6Q270.1 520.4 268.4 520.4L268.4 520.4Q267.4 520.4 266.5 520.1Q265.6 519.7 265.0 519.0Q264.4 518.3 264.1 517.3Q263.7 516.3 263.7 515.0L263.7 515.0L263.7 505.6L267.9 505.6L267.9 514.4Q267.9 517.2 270.3 517.2L270.3 517.2Q270.8 517.2 271.2 517.1Q271.7 517.0 272.0 516.7Q272.4 516.5 272.6 516.1Q272.8 515.7 272.8 515.1L272.8 515.1L272.8 505.6L277.0 505.6L277.0 520.1L272.8 520.1ZM280.5 520.1L280.5 499.4L284.6 499.4L284.6 508.3L284.8 508.3Q285.3 507.0 286.3 506.1Q287.3 505.3 289.1 505.3L289.1 505.3Q290.3 505.3 291.3 505.8Q292.3 506.2 293.0 507.1Q293.7 508.1 294.1 509.5Q294.5 510.9 294.5 512.9L294.5 512.9Q294.5 514.8 294.1 516.3Q293.7 517.7 293.0 518.6Q292.3 519.5 291.3 520.0Q290.3 520.4 289.1 520.4L289.1 520.4Q287.3 520.4 286.3 519.6Q285.3 518.8 284.8 517.5L284.8 517.5L284.6 517.5L284.6 520.1L280.5 520.1ZM287.3 517.2L287.3 517.2Q288.7 517.2 289.4 516.4Q290.2 515.5 290.2 514.0L290.2 514.0L290.2 511.7Q290.2 510.2 289.4 509.4Q288.7 508.5 287.3 508.5L287.3 508.5Q286.2 508.5 285.4 509.1Q284.6 509.6 284.6 510.7L284.6 510.7L284.6 515.0Q284.6 516.1 285.4 516.7Q286.2 517.2 287.3 517.2ZM311.6 520.1L309.2 520.1Q307.9 520.1 307.2 519.4Q306.4 518.8 306.2 517.5L306.2 517.5L306.1 517.5Q305.7 519.0 304.5 519.7Q303.4 520.4 301.7 520.4L301.7 520.4Q299.6 520.4 298.3 519.3Q297.1 518.2 297.1 516.1L297.1 516.1Q297.1 513.8 298.7 512.8Q300.4 511.7 303.6 511.7L303.6 511.7L305.9 511.7L305.9 510.9Q305.9 509.6 305.3 509.0Q304.7 508.3 303.2 508.3L303.2 508.3Q301.9 508.3 301.1 508.8Q300.3 509.3 299.7 510.2L299.7 510.2L297.4 508.1Q298.2 506.9 299.7 506.1Q301.3 505.3 303.7 505.3L303.7 505.3Q306.7 505.3 308.4 506.7Q310.0 508.0 310.0 510.8L310.0 510.8L310.0 517.1L311.6 517.1L311.6 520.1ZM303.3 517.7L303.3 517.7Q304.4 517.7 305.1 517.2Q305.9 516.6 305.9 515.6L305.9 515.6L305.9 513.9L303.7 513.9Q301.1 513.9 301.1 515.6L301.1 515.6L301.1 516.2Q301.1 516.9 301.7 517.3Q302.3 517.7 303.3 517.7ZM314.2 520.1L314.2 499.4L318.4 499.4L318.4 511.1L318.6 511.1L320.5 508.9L323.5 505.6L328.3 505.6L322.7 511.4L328.9 520.1L323.9 520.1L319.7 513.7L318.4 515.1L318.4 520.1L314.2 520.1ZM345.2 520.1L342.8 520.1Q341.5 520.1 340.8 519.4Q340.0 518.8 339.8 517.5L339.8 517.5L339.7 517.5Q339.3 519.0 338.1 519.7Q337.0 520.4 335.3 520.4L335.3 520.4Q333.2 520.4 331.9 519.3Q330.7 518.2 330.7 516.1L330.7 516.1Q330.7 513.8 332.3 512.8Q334.0 511.7 337.2 511.7L337.2 511.7L339.5 511.7L339.5 510.9Q339.5 509.6 338.9 509.0Q338.3 508.3 336.8 508.3L336.8 508.3Q335.5 508.3 334.7 508.8Q333.9 509.3 333.3 510.2L333.3 510.2L331.0 508.1Q331.8 506.9 333.3 506.1Q334.9 505.3 337.3 505.3L337.3 505.3Q340.3 505.3 342.0 506.7Q343.6 508.0 343.6 510.8L343.6 510.8L343.6 517.1L345.2 517.1L345.2 520.1ZM336.9 517.7L336.9 517.7Q338.0 517.7 338.7 517.2Q339.5 516.6 339.5 515.6L339.5 515.6L339.5 513.9L337.3 513.9Q334.7 513.9 334.7 515.6L334.7 515.6L334.7 516.2Q334.7 516.9 335.3 517.3Q335.9 517.7 336.9 517.7Z " clip-path="url(#satori_cp-id-0-1-0-1-0-2)" mask="url(#satori_om-id-0-1-0-1-0-2)"/><clipPath id="satori_cp-id-0-1-0-1-1"><rect x="903" y="489" width="168" height="36"/></clipPath><mask id="satori_om-id-0-1-0-1-1"><rect x="903" y="489" width="168" height="36" fill="#fff"/></mask><path fill="black" d="M909.0 520.1L904.8 520.1L904.8 505.6L909.0 505.6L909.0 508.3L909.1 508.3Q909.4 507.7 909.7 507.1Q910.1 506.6 910.6 506.2Q911.1 505.8 911.8 505.5Q912.5 505.3 913.4 505.3L913.4 505.3Q914.4 505.3 915.3 505.7Q916.2 506.0 916.8 506.7Q917.4 507.4 917.7 508.4Q918.1 509.4 918.1 510.7L918.1 510.7L918.1 520.1L913.9 520.1L913.9 511.3Q913.9 508.5 911.5 508.5L911.5 508.5Q911.0 508.5 910.6 508.6Q910.1 508.8 909.7 509.0Q909.4 509.3 909.2 509.7Q909.0 510.1 909.0 510.6L909.0 510.6L909.0 520.1ZM928.6 520.4L928.6 520.4Q925.0 520.4 923.1 518.4Q921.2 516.4 921.2 512.9L921.2 512.9Q921.2 511.2 921.7 509.7Q922.2 508.3 923.1 507.3Q924 506.3 925.3 505.8Q926.6 505.3 928.2 505.3L928.2 505.3Q929.9 505.3 931.1 505.8Q932.4 506.3 933.3 507.3Q934.2 508.2 934.7 509.6Q935.2 511.0 935.2 512.6L935.2 512.6L935.2 513.9L925.3 513.9L925.3 514.1Q925.3 515.5 926.2 516.4Q927.1 517.2 928.7 517.2L928.7 517.2Q930.0 517.2 930.9 516.7Q931.9 516.3 932.5 515.4L932.5 515.4L934.8 517.9Q933.9 518.9 932.4 519.7Q930.9 520.4 928.6 520.4ZM928.3 508.3L928.3 508.3Q926.9 508.3 926.1 509.1Q925.3 509.9 925.3 511.3L925.3 511.3L925.3 511.6L931.1 511.6L931.1 511.3Q931.1 509.9 930.4 509.1Q929.6 508.3 928.3 508.3ZM940.8 520.1L937.4 520.1L937.4 505.6L940.8 505.6L940.8 507.8L941.0 507.8Q941.3 506.8 941.9 506.0Q942.6 505.3 943.7 505.3L943.7 505.3Q945.8 505.3 946.3 507.8L946.3 507.8L946.5 507.8Q946.6 507.3 946.9 506.8Q947.1 506.4 947.5 506.0Q947.9 505.7 948.4 505.5Q948.9 505.3 949.5 505.3L949.5 505.3Q952.6 505.3 952.6 509.8L952.6 509.8L952.6 520.1L949.2 520.1L949.2 510.2Q949.2 509.2 948.9 508.8Q948.5 508.4 948.0 508.4L948.0 508.4Q947.4 508.4 947.1 508.7Q946.7 509.1 946.7 509.8L946.7 509.8L946.7 520.1L943.3 520.1L943.3 510.2Q943.3 509.2 943.0 508.8Q942.7 508.4 942.1 508.4L942.1 508.4Q941.6 508.4 941.2 508.7Q940.8 509.1 940.8 509.8L940.8 509.8L940.8 520.1ZM964.2 520.1L964.2 517.5L964.1 517.5Q963.6 518.7 962.6 519.6Q961.5 520.4 959.8 520.4L959.8 520.4Q958.8 520.4 957.9 520.1Q957.0 519.7 956.4 519.0Q955.8 518.3 955.5 517.3Q955.1 516.3 955.1 515.0L955.1 515.0L955.1 505.6L959.3 505.6L959.3 514.4Q959.3 517.2 961.7 517.2L961.7 517.2Q962.2 517.2 962.6 517.1Q963.1 517.0 963.4 516.7Q963.8 516.5 964.0 516.1Q964.2 515.7 964.2 515.1L964.2 515.1L964.2 505.6L968.4 505.6L968.4 520.1L964.2 520.1ZM972.3 520.1L972.3 516.9L975.6 516.9L975.6 508.9L972.3 508.9L972.3 505.6L979.7 505.6L979.7 509.7L979.9 509.7Q980.1 508.9 980.5 508.2Q980.8 507.5 981.4 506.9Q981.9 506.3 982.7 506.0Q983.5 505.6 984.6 505.6L984.6 505.6L985.9 505.6L985.9 509.5L982.9 509.5Q981.3 509.5 980.5 510.4Q979.7 511.3 979.7 512.6L979.7 512.6L979.7 516.9L984.5 516.9L984.5 520.1L972.3 520.1ZM997.8 520.1L997.8 517.5L997.7 517.5Q997.2 518.7 996.2 519.6Q995.1 520.4 993.4 520.4L993.4 520.4Q992.4 520.4 991.5 520.1Q990.6 519.7 990.0 519.0Q989.4 518.3 989.1 517.3Q988.7 516.3 988.7 515.0L988.7 515.0L988.7 505.6L992.9 505.6L992.9 514.4Q992.9 517.2 995.3 517.2L995.3 517.2Q995.8 517.2 996.2 517.1Q996.7 517.0 997.0 516.7Q997.4 516.5 997.6 516.1Q997.8 515.7 997.8 515.1L997.8 515.1L997.8 505.6L1002.0 505.6L1002.0 520.1L997.8 520.1ZM1005.5 520.1L1005.5 499.4L1009.6 499.4L1009.6 508.3L1009.8 508.3Q1010.3 507.0 1011.3 506.1Q1012.3 505.3 1014.1 505.3L1014.1 505.3Q1015.3 505.3 1016.3 505.8Q1017.3 506.2 1018.0 507.1Q1018.7 508.1 1019.1 509.5Q1019.5 510.9 1019.5 512.9L1019.5 512.9Q1019.5 514.8 1019.1 516.3Q1018.7 517.7 1018.0 518.6Q1017.3 519.5 1016.3 520.0Q1015.3 520.4 1014.1 520.4L1014.1 520.4Q1012.3 520.4 1011.3 519.6Q1010.3 518.8 1009.8 517.5L1009.8 517.5L1009.6 517.5L1009.6 520.1L1005.5 520.1ZM1012.3 517.2L1012.3 517.2Q1013.7 517.2 1014.4 516.4Q1015.2 515.5 1015.2 514.0L1015.2 514.0L1015.2 511.7Q1015.2 510.2 1014.4 509.4Q1013.7 508.5 1012.3 508.5L1012.3 508.5Q1011.2 508.5 1010.4 509.1Q1009.6 509.6 1009.6 510.7L1009.6 510.7L1009.6 515.0Q1009.6 516.1 1010.4 516.7Q1011.2 517.2 1012.3 517.2ZM1036.6 520.1L1034.2 520.1Q1032.9 520.1 1032.2 519.4Q1031.4 518.8 1031.2 517.5L1031.2 517.5L1031.1 517.5Q1030.7 519.0 1029.5 519.7Q1028.4 520.4 1026.7 520.4L1026.7 520.4Q1024.6 520.4 1023.3 519.3Q1022.1 518.2 1022.1 516.1L1022.1 516.1Q1022.1 513.8 1023.7 512.8Q1025.4 511.7 1028.6 511.7L1028.6 511.7L1030.9 511.7L1030.9 510.9Q1030.9 509.6 1030.3 509.0Q1029.7 508.3 1028.2 508.3L1028.2 508.3Q1026.9 508.3 1026.1 508.8Q1025.3 509.3 1024.7 510.2L1024.7 510.2L1022.4 508.1Q1023.2 506.9 1024.7 506.1Q1026.3 505.3 1028.7 505.3L1028.7 505.3Q1031.7 505.3 1033.4 506.7Q1035.0 508.0 1035.0 510.8L1035.0 510.8L1035.0 517.1L1036.6 517.1L1036.6 520.1ZM1028.3 517.7L1028.3 517.7Q1029.4 517.7 1030.1 517.2Q1030.9 516.6 1030.9 515.6L1030.9 515.6L1030.9 513.9L1028.7 513.9Q1026.1 513.9 1026.1 515.6L1026.1 515.6L1026.1 516.2Q1026.1 516.9 1026.7 517.3Q1027.3 517.7 1028.3 517.7ZM1039.2 520.1L1039.2 499.4L1043.4 499.4L1043.4 511.1L1043.6 511.1L1045.5 508.9L1048.5 505.6L1053.3 505.6L1047.7 511.4L1053.9 520.1L1048.9 520.1L1044.7 513.7L1043.4 515.1L1043.4 520.1L1039.2 520.1ZM1070.2 520.1L1067.8 520.1Q1066.5 520.1 1065.8 519.4Q1065.0 518.8 1064.8 517.5L1064.8 517.5L1064.7 517.5Q1064.3 519.0 1063.1 519.7Q1062.0 520.4 1060.3 520.4L1060.3 520.4Q1058.2 520.4 1056.9 519.3Q1055.7 518.2 1055.7 516.1L1055.7 516.1Q1055.7 513.8 1057.3 512.8Q1059.0 511.7 1062.2 511.7L1062.2 511.7L1064.5 511.7L1064.5 510.9Q1064.5 509.6 1063.9 509.0Q1063.3 508.3 1061.8 508.3L1061.8 508.3Q1060.5 508.3 1059.7 508.8Q1058.9 509.3 1058.3 510.2L1058.3 510.2L1056.0 508.1Q1056.8 506.9 1058.3 506.1Q1059.9 505.3 1062.3 505.3L1062.3 505.3Q1065.3 505.3 1067.0 506.7Q1068.6 508.0 1068.6 510.8L1068.6 510.8L1068.6 517.1L1070.2 517.1L1070.2 520.1ZM1061.9 517.7L1061.9 517.7Q1063.0 517.7 1063.7 517.2Q1064.5 516.6 1064.5 515.6L1064.5 515.6L1064.5 513.9L1062.3 513.9Q1059.7 513.9 1059.7 515.6L1059.7 515.6L1059.7 516.2Q1059.7 516.9 1060.3 517.3Q1060.9 517.7 1061.9 517.7Z " clip-path="url(#satori_cp-id-0-1-0-1-1)" mask="url(#satori_om-id-0-1-0-1-1)"/></svg>