<svg width="1200" height="630" viewBox="0 0 1200 630" xmlns="http://www.w3.org/2000/svg"><rect x="0" y="0" width="1200" height="630" fill="#fefbfb"/><defs><clipPath id="satori_bc-id-0-0"><path x="105" y="39" width="1056" height="504" d="M109,39 h1048 a4,4 0 0 1 4,4 v496 a4,4 0 0 1 -4,4 h-1048 a4,4 0 0 1 -4,-4 v-496 a4,4 0 0 1 4,-4"/></clipPath></defs><g opacity="0.9"><path x="105" y="39" width="1056" height="504" fill="#ecebeb" d="M109,39 h1048 a4,4 0 0 1 4,4 v496 a4,4 0 0 1 -4,4 h-1048 a4,4 0 0 1 -4,-4 v-496 a4,4 0 0 1 4,-4"/><path width="1056" height="504" clip-path="url(#satori_bc-id-0-0)" fill="none" stroke="#000" stroke-width="8" d="M106.172,40.172 A4,4 0 0 1 109,39 h1048 a4,4 0 0 1 4,4 v496 a4,4 0 0 1 -4,4 h-1048 a4,4 0 0 1 -4,-4 v-496 A4,4 0 0 1 106.172,40.172"/></g><defs><clipPath id="satori_bc-id-0-1"><path x="72" y="63" width="1056" height="504" d="M76,63 h1048 a4,4 0 0 1 4,4 v496 a4,4 0 0 1 -4,4 h-1048 a4,4 0 0 1 -4,-4 v-496 a4,4 0 0 1 4,-4"/></clipPath></defs><path x="72" y="63" width="1056" height="504" fill="#fefbfb" d="M76,63 h1048 a4,4 0 0 1 4,4 v496 a4,4 0 0 1 -4,4 h-1048 a4,4 0 0 1 -4,-4 v-496 a4,4 0 0 1 4,-4"/><path width="1056" height="504" clip-path="url(#satori_bc-id-0-1)" fill="none" stroke="#000" stroke-width="8" d="M73.172,64.172 A4,4 0 0 1 76,63 h1048 a4,4 0 0 1 4,4 v496 a4,4 0 0 1 -4,4 h-1048 a4,4 0 0 1 -4,-4 v-496 A4,4 0 0 1 73.172,64.172"/><clipPath id="satori_cp-id-0-1-0-0"><rect x="128" y="103" width="944" height="187"/></clipPath><mask id="satori_om-id-0-1-0-0"><rect x="128" y="103" width="944" height="187" fill="#fff"/></mask><path fill="black" d="M170.8 183.0L159.3 183.0L156.2 170.9L142.4 170.9L139.3 183.0L128.4 183.0L142.0 132.7L157.2 132.7L170.8 183.0ZM154.5 162.1L149.6 143.1L149.0 143.1L144.1 162.1L154.5 162.1ZM192.4 183.8L192.4 183.8Q186.2 183.8 181.6 181.9Q177.0 180.1 174.7 176.8L174.7 176.8L180.7 171.3Q182.9 173.7 185.8 175.0Q188.7 176.3 192.4 176.3L192.4 176.3Q195.6 176.3 197.4 175.4Q199.2 174.4 199.2 172.4L199.2 172.4Q199.2 170.8 198.0 170.2Q196.8 169.6 194.6 169.2L194.6 169.2L188.6 168.3Q186.1 167.9 183.9 167.1Q181.8 166.4 180.2 165.1Q178.6 163.8 177.7 161.9Q176.7 160.1 176.7 157.4L176.7 157.4Q176.7 151.6 181.2 148.2Q185.7 144.9 193.7 144.9L193.7 144.9Q199.2 144.9 203.1 146.4Q206.9 147.9 209.2 150.6L209.2 150.6L203.9 156.7Q202.2 154.9 199.6 153.6Q197.0 152.4 193.4 152.4L193.4 152.4Q187.2 152.4 187.2 156.2L187.2 156.2Q187.2 157.8 188.4 158.4Q189.6 159.0 191.8 159.4L191.8 159.4L197.7 160.3Q200.2 160.7 202.4 161.5Q204.5 162.2 206.2 163.5Q207.8 164.8 208.7 166.7Q209.6 168.6 209.6 171.2L209.6 171.2Q209.6 177.0 205.1 180.4Q200.6 183.8 192.4 183.8ZM252.6 183.0L238.9 183.0Q233.1 183.0 230.3 179.9Q227.5 176.9 227.5 172.2L227.5 172.2L227.5 154.1L217.4 154.1L217.4 145.8L224.0 145.8Q226.4 145.8 227.4 144.9Q228.4 143.9 228.4 141.4L228.4 141.4L228.4 132.7L238.2 132.7L238.2 145.8L252.6 145.8L252.6 154.1L238.2 154.1L238.2 174.7L252.6 174.7L252.6 183.0ZM262.9 183.0L262.9 174.7L271.5 174.7L271.5 154.1L262.9 154.1L262.9 145.8L282.2 145.8L282.2 156.3L282.7 156.3Q283.2 154.3 284.1 152.4Q285.0 150.5 286.4 149.0Q287.8 147.5 289.8 146.7Q291.8 145.8 294.5 145.8L294.5 145.8L298.1 145.8L298.1 155.6L290.1 155.6Q286.2 155.6 284.2 157.9Q282.2 160.3 282.2 163.7L282.2 163.7L282.2 174.7L294.4 174.7L294.4 183.0L262.9 183.0ZM322.4 183.8L322.4 183.8Q318.1 183.8 314.6 182.5Q311.2 181.2 308.8 178.6Q306.3 176.1 305.0 172.5Q303.8 168.9 303.8 164.4L303.8 164.4Q303.8 159.8 305.0 156.2Q306.3 152.6 308.8 150.1Q311.2 147.6 314.6 146.3Q318.1 144.9 322.4 144.9L322.4 144.9Q326.7 144.9 330.2 146.3Q333.6 147.6 336.0 150.1Q338.5 152.6 339.8 156.2Q341.0 159.8 341.0 164.4L341.0 164.4Q341.0 168.9 339.8 172.5Q338.5 176.1 336.0 178.6Q333.6 181.2 330.2 182.5Q326.7 183.8 322.4 183.8ZM322.4 175.9L322.4 175.9Q326.0 175.9 328.0 173.7Q330.0 171.4 330.0 167.3L330.0 167.3L330.0 161.4Q330.0 157.3 328.0 155.1Q326.0 152.9 322.4 152.9L322.4 152.9Q318.8 152.9 316.8 155.1Q314.8 157.3 314.8 161.4L314.8 161.4L314.8 167.3Q314.8 171.4 316.8 173.7Q318.8 175.9 322.4 175.9Z M392.1 183.0L387.7 145.8L396.6 145.8L399.2 175.9L399.9 175.9L404.3 145.8L413.7 145.8L418.0 175.9L418.7 175.9L421.5 145.8L429.9 145.8L425.5 183.0L412.8 183.0L409.2 157.3L408.4 157.3L404.8 183.0L392.1 183.0ZM454.3 141.0L454.3 141.0Q450.7 141.0 449.3 139.6Q447.9 138.1 447.9 136.0L447.9 136.0L447.9 133.9Q447.9 131.8 449.3 130.3Q450.7 128.9 454.3 128.9L454.3 128.9Q457.9 128.9 459.3 130.3Q460.7 131.8 460.7 133.9L460.7 133.9L460.7 136.0Q460.7 138.1 459.3 139.6Q457.9 141.0 454.3 141.0ZM437.2 183.0L437.2 174.7L449.0 174.7L449.0 154.1L437.2 154.1L437.2 145.8L459.6 145.8L459.6 174.7L470.6 174.7L470.6 183.0L437.2 183.0ZM511.8 183.0L498.1 183.0Q492.3 183.0 489.5 179.9Q486.7 176.9 486.7 172.2L486.7 172.2L486.7 154.1L476.6 154.1L476.6 145.8L483.2 145.8Q485.6 145.8 486.6 144.9Q487.6 143.9 487.6 141.4L487.6 141.4L487.6 132.7L497.4 132.7L497.4 145.8L511.8 145.8L511.8 154.1L497.4 154.1L497.4 174.7L511.8 174.7L511.8 183.0ZM521.5 183.0L521.5 129.7L532.1 129.7L532.1 152.6L532.6 152.6Q533.2 151.0 534.2 149.6Q535.1 148.2 536.4 147.2Q537.8 146.2 539.5 145.5Q541.3 144.9 543.5 144.9L543.5 144.9Q546.2 144.9 548.4 145.8Q550.6 146.7 552.2 148.5Q553.8 150.3 554.7 152.9Q555.6 155.5 555.6 158.9L555.6 158.9L555.6 183.0L545.0 183.0L545.0 160.3Q545.0 153.1 538.7 153.1L538.7 153.1Q537.5 153.1 536.3 153.5Q535.1 153.8 534.2 154.5Q533.2 155.2 532.7 156.2Q532.1 157.2 532.1 158.5L532.1 158.5L532.1 183.0L521.5 183.0Z M619.3 164.3L619.3 183.0L608.7 183.0L608.7 132.7L628.1 132.7Q631.8 132.7 634.7 133.8Q637.5 134.9 639.5 137.0Q641.5 139.1 642.5 142.1Q643.5 145.0 643.5 148.7L643.5 148.7Q643.5 154.0 641.2 157.8Q638.9 161.6 634.7 162.9L634.7 162.9L644.5 183.0L632.7 183.0L624.3 164.3L619.3 164.3ZM619.3 156.0L625.5 156.0Q629.3 156.0 630.8 154.5Q632.3 153.1 632.3 149.8L632.3 149.8L632.3 147.6Q632.3 144.3 630.8 142.8Q629.3 141.4 625.5 141.4L625.5 141.4L619.3 141.4L619.3 156.0ZM669.0 183.8L669.0 183.8Q659.6 183.8 654.8 178.6Q650 173.4 650 164.5L650 164.5Q650 160.0 651.3 156.3Q652.5 152.7 654.9 150.2Q657.2 147.6 660.5 146.3Q663.9 144.9 668.1 144.9L668.1 144.9Q672.2 144.9 675.6 146.3Q678.9 147.6 681.2 150.0Q683.5 152.5 684.7 156.0Q686 159.5 686 163.8L686 163.8L686 167.0L660.6 167.0L660.6 167.6Q660.6 171.2 662.8 173.4Q665.0 175.6 669.4 175.6L669.4 175.6Q672.7 175.6 675.1 174.3Q677.4 173.1 679.2 171.0L679.2 171.0L684.9 177.3Q682.8 179.9 678.9 181.9Q675.0 183.8 669.0 183.8ZM668.1 152.6L668.1 152.6Q664.7 152.6 662.6 154.7Q660.6 156.8 660.6 160.4L660.6 160.4L660.6 161.0L675.6 161.0L675.6 160.4Q675.6 156.7 673.6 154.7Q671.6 152.6 668.1 152.6ZM700.3 183.0L691.8 183.0L691.8 145.8L700.3 145.8L700.3 151.3L700.8 151.3Q701.7 148.7 703.3 146.8Q704.9 144.9 707.9 144.9L707.9 144.9Q713.3 144.9 714.5 151.3L714.5 151.3L714.9 151.3Q715.4 150.0 716.0 148.8Q716.7 147.7 717.6 146.8Q718.5 145.9 719.8 145.4Q721.1 144.9 722.9 144.9L722.9 144.9Q730.6 144.9 730.6 156.4L730.6 156.4L730.6 183.0L722.1 183.0L722.1 157.5Q722.1 154.9 721.2 153.8Q720.3 152.8 718.8 152.8L718.8 152.8Q717.5 152.8 716.5 153.7Q715.5 154.6 715.5 156.5L715.5 156.5L715.5 183.0L706.9 183.0L706.9 157.5Q706.9 154.9 706.1 153.8Q705.2 152.8 703.8 152.8L703.8 152.8Q702.3 152.8 701.3 153.7Q700.3 154.6 700.3 156.5L700.3 156.5L700.3 183.0ZM774.0 183.0L767.9 183.0Q764.6 183.0 762.5 181.3Q760.5 179.6 760.2 176.4L760.2 176.4L759.8 176.4Q758.8 180.1 755.8 181.9Q752.8 183.8 748.5 183.8L748.5 183.8Q743.1 183.8 739.8 180.9Q736.5 178.0 736.5 172.7L736.5 172.7Q736.5 166.9 740.8 164.1Q745.0 161.3 753.2 161.3L753.2 161.3L759.2 161.3L759.2 159.4Q759.2 156.1 757.7 154.4Q756.1 152.7 752.5 152.7L752.5 152.7Q749.1 152.7 747.0 154.0Q744.9 155.3 743.4 157.4L743.4 157.4L737.6 152.2Q739.4 149.0 743.4 147.0Q747.4 144.9 753.7 144.9L753.7 144.9Q761.3 144.9 765.6 148.4Q769.9 151.9 769.9 159.0L769.9 159.0L769.9 175.2L774.0 175.2L774.0 183.0ZM752.5 176.8L752.5 176.8Q755.3 176.8 757.3 175.5Q759.2 174.1 759.2 171.5L759.2 171.5L759.2 167.0L753.5 167.0Q747.0 167.0 747.0 171.4L747.0 171.4L747.0 172.9Q747.0 174.8 748.5 175.8Q750.0 176.8 752.5 176.8ZM781.3 183.0L781.3 174.7L789.9 174.7L789.9 154.1L781.3 154.1L781.3 145.8L800.6 145.8L800.6 156.3L801.1 156.3Q801.6 154.3 802.5 152.4Q803.4 150.5 804.8 149.0Q806.2 147.5 808.2 146.7Q810.2 145.8 812.9 145.8L812.9 145.8L816.5 145.8L816.5 155.6L808.5 155.6Q804.6 155.6 802.6 157.9Q800.6 160.3 800.6 163.7L800.6 163.7L800.6 174.7L812.8 174.7L812.8 183.0L781.3 183.0ZM823.9 183.0L823.9 129.7L834.5 129.7L834.5 159.9L835.0 159.9L840.0 154.1L847.8 145.8L860.0 145.8L845.6 160.5L861.5 183.0L848.9 183.0L838.1 166.5L834.5 170.1L834.5 183.0L823.9 183.0Z M144.3 276.6L133.5 276.6L133.5 226.3L152.9 226.3Q156.6 226.3 159.5 227.4Q162.3 228.5 164.3 230.6Q166.3 232.7 167.3 235.7Q168.3 238.6 168.3 242.3L168.3 242.3Q168.3 246.0 167.3 248.9Q166.3 251.9 164.3 253.9Q162.3 256.0 159.5 257.1Q156.6 258.3 152.9 258.3L152.9 258.3L144.3 258.3L144.3 276.6ZM144.3 235.0L144.3 249.6L150.2 249.6Q154.0 249.6 155.5 248.1Q156.9 246.7 156.9 243.4L156.9 243.4L156.9 241.2Q156.9 237.9 155.5 236.4Q154.0 235.0 150.2 235.0L150.2 235.0L144.3 235.0ZM176.1 276.6L176.1 268.3L187.5 268.3L187.5 231.6L176.1 231.6L176.1 223.3L198.1 223.3L198.1 268.3L209.5 268.3L209.5 276.6L176.1 276.6ZM242.3 276.6L242.3 269.8L241.8 269.8Q240.6 273.0 238.0 275.2Q235.4 277.4 230.9 277.4L230.9 277.4Q228.2 277.4 226.0 276.5Q223.8 275.6 222.2 273.8Q220.6 272.0 219.7 269.4Q218.8 266.8 218.8 263.4L218.8 263.4L218.8 239.4L229.4 239.4L229.4 262.0Q229.4 269.2 235.7 269.2L235.7 269.2Q236.9 269.2 238.1 268.9Q239.3 268.6 240.2 267.9Q241.1 267.2 241.7 266.2Q242.3 265.2 242.3 263.8L242.3 263.8L242.3 239.4L252.9 239.4L252.9 276.6L242.3 276.6ZM299.6 280.3L299.6 280.3Q299.6 286.2 294.6 289.0Q289.6 291.8 279.0 291.8L279.0 291.8Q273.7 291.8 270.2 291.2Q266.7 290.6 264.7 289.4Q262.6 288.3 261.8 286.7Q261.0 285.1 261.0 283.2L261.0 283.2Q261.0 280.1 262.9 278.5Q264.7 276.8 268.1 276.0L268.1 276.0L268.1 275.5Q265.7 274.8 264.3 273.5Q262.9 272.2 262.9 269.7L262.9 269.7Q262.9 267.0 264.8 265.7Q266.6 264.4 269.6 263.7L269.6 263.7L269.6 263.2Q266.3 261.6 264.5 258.8Q262.6 255.9 262.6 251.8L262.6 251.8Q262.6 248.5 263.8 246.1Q264.9 243.6 267.1 241.9Q269.2 240.3 272.1 239.4Q275.1 238.5 278.8 238.5L278.8 238.5Q282.3 238.5 285.3 239.3L285.3 239.3L285.3 237.3Q285.3 235.2 286.8 233.7Q288.3 232.3 291.0 232.3L291.0 232.3L297.6 232.3L297.6 240.0L288.6 240.0L288.6 240.7Q291.7 242.3 293.3 245.1Q295.0 247.8 295.0 251.8L295.0 251.8Q295.0 255.0 293.9 257.5Q292.7 259.9 290.6 261.6Q288.4 263.3 285.4 264.2Q282.4 265.0 278.8 265.0L278.8 265.0Q277.1 265.0 275.6 264.9Q274.1 264.7 272.7 264.3L272.7 264.3Q271.9 264.7 271.4 265.4Q270.8 266.0 270.8 267.0L270.8 267.0Q270.8 267.9 271.3 268.4Q271.7 268.9 272.5 269.2Q273.2 269.4 274.2 269.5Q275.2 269.6 276.3 269.6L276.3 269.6L284.8 269.6Q288.8 269.6 291.6 270.4Q294.4 271.2 296.2 272.6Q298.0 274.0 298.8 276.0Q299.6 277.9 299.6 280.3ZM289.5 281.1L289.5 281.1Q289.5 279.6 288.3 278.8Q287.2 278.0 284.0 278.0L284.0 278.0L271.2 278.0Q269.8 279.2 269.8 281.0L269.8 281.0Q269.8 282.7 271.2 283.9Q272.7 285.0 276.2 285.0L276.2 285.0L282.5 285.0Q286.2 285.0 287.8 284.0Q289.5 283.0 289.5 281.1ZM278.8 258.3L278.8 258.3Q282.0 258.3 283.5 256.7Q285.0 255.1 285.0 252.6L285.0 252.6L285.0 250.9Q285.0 248.5 283.5 246.9Q282.0 245.3 278.8 245.3L278.8 245.3Q275.6 245.3 274.2 246.9Q272.7 248.5 272.7 250.9L272.7 250.9L272.7 252.6Q272.7 255.1 274.2 256.7Q275.6 258.3 278.8 258.3ZM324.7 234.6L324.7 234.6Q321.1 234.6 319.7 233.2Q318.3 231.7 318.3 229.6L318.3 229.6L318.3 227.5Q318.3 225.4 319.7 223.9Q321.1 222.5 324.7 222.5L324.7 222.5Q328.3 222.5 329.7 223.9Q331.1 225.4 331.1 227.5L331.1 227.5L331.1 229.6Q331.1 231.7 329.7 233.2Q328.3 234.6 324.7 234.6ZM307.6 276.6L307.6 268.3L319.4 268.3L319.4 247.7L307.6 247.7L307.6 239.4L330.0 239.4L330.0 268.3L341.0 268.3L341.0 276.6L307.6 276.6ZM359.3 276.6L348.7 276.6L348.7 239.4L359.3 239.4L359.3 246.2L359.8 246.2Q360.4 244.6 361.4 243.2Q362.3 241.8 363.6 240.8Q365.0 239.8 366.7 239.1Q368.5 238.5 370.7 238.5L370.7 238.5Q373.4 238.5 375.6 239.4Q377.8 240.3 379.4 242.1Q381.0 243.9 381.9 246.5Q382.8 249.1 382.8 252.5L382.8 252.5L382.8 276.6L372.2 276.6L372.2 253.9Q372.2 246.7 365.9 246.7L365.9 246.7Q364.7 246.7 363.5 247.1Q362.3 247.4 361.4 248.1Q360.4 248.8 359.9 249.8Q359.3 250.8 359.3 252.1L359.3 252.1L359.3 276.6ZM408.4 277.4L408.4 277.4Q402.2 277.4 397.6 275.5Q393.0 273.7 390.7 270.4L390.7 270.4L396.7 264.9Q398.9 267.3 401.8 268.6Q404.7 269.9 408.4 269.9L408.4 269.9Q411.6 269.9 413.4 269.0Q415.2 268.0 415.2 266.0L415.2 266.0Q415.2 264.4 414.0 263.8Q412.8 263.2 410.6 262.8L410.6 262.8L404.6 261.9Q402.1 261.5 399.9 260.7Q397.8 260.0 396.2 258.7Q394.6 257.4 393.7 255.5Q392.7 253.7 392.7 251.0L392.7 251.0Q392.7 245.2 397.2 241.8Q401.7 238.5 409.7 238.5L409.7 238.5Q415.2 238.5 419.1 240.0Q422.9 241.5 425.2 244.2L425.2 244.2L419.9 250.3Q418.2 248.5 415.6 247.2Q413.0 246.0 409.4 246.0L409.4 246.0Q403.2 246.0 403.2 249.8L403.2 249.8Q403.2 251.4 404.4 252.0Q405.6 252.6 407.8 253.0L407.8 253.0L413.7 253.9Q416.2 254.3 418.4 255.1Q420.5 255.8 422.2 257.1Q423.8 258.4 424.7 260.3Q425.6 262.2 425.6 264.8L425.6 264.8Q425.6 270.6 421.1 274.0Q416.6 277.4 408.4 277.4Z " clip-path="url(#satori_cp-id-0-1-0-0)" mask="url(#satori_om-id-0-1-0-0)"/><path fill="black" d="M130.7 520.3L130.7 499.6L132.9 499.6L132.9 508.2L133.0 508.2Q134.4 505.5 137.5 505.5L137.5 505.5Q140.1 505.5 141.6 507.5Q143.1 509.5 143.1 513.0L143.1 513.0Q143.1 516.6 141.6 518.6Q140.1 520.6 137.5 520.6L137.5 520.6Q134.4 520.6 133.0 517.9L133.0 517.9L132.9 517.9L132.9 520.3L130.7 520.3ZM136.6 518.6L136.6 518.6Q138.6 518.6 139.6 517.4Q140.7 516.2 140.7 514.3L140.7 514.3L140.7 511.8Q140.7 509.9 139.6 508.7Q138.6 507.5 136.6 507.5L136.6 507.5Q135.8 507.5 135.2 507.7Q134.5 507.9 134.0 508.2Q133.5 508.6 133.2 509.2Q132.9 509.7 132.9 510.4L132.9 510.4L132.9 515.7Q132.9 516.4 133.2 516.9Q133.5 517.5 134.0 517.8Q134.5 518.2 135.2 518.4Q135.8 518.6 136.6 518.6ZM155.4 511.9L157.9 505.8L160.1 505.8L152.9 523.4Q152.7 524.1 152.4 524.5Q152.1 525.0 151.7 525.3Q151.2 525.6 150.7 525.7Q150.1 525.9 149.3 525.9L149.3 525.9L147.1 525.9L147.1 524.0L150.5 524.0L152.1 520.0L146.3 505.8L148.6 505.8L151.0 511.9L153.2 517.4L153.3 517.4L155.4 511.9Z "/><clipPath id="satori_cp-id-0-1-0-1-0-2"><rect x="178" y="489" width="101" height="36"/></clipPath><mask id="satori_om-id-0-1-0-1-0-2"><rect x="178" y="489" width="101" height="36" fill="#fff"/></mask><path fill="black" d="M182.2 520.1L178.8 520.1L178.8 505.6L182.2 505.6L182.2 507.8L182.4 507.8Q182.7 506.8 183.3 506.0Q184.0 505.3 185.1 505.3L185.1 505.3Q187.2 505.3 187.7 507.8L187.7 507.8L187.9 507.8Q188.0 507.3 188.3 506.8Q188.5 506.4 188.9 506.0Q189.3 505.7 189.8 505.5Q190.3 505.3 190.9 505.3L190.9 505.3Q194.0 505.3 194.0 509.8L194.0 509.8L194.0 520.1L190.6 520.1L190.6 510.2Q190.6 509.2 190.3 508.8Q189.9 508.4 189.4 508.4L189.4 508.4Q188.8 508.4 188.5 508.7Q188.1 509.1 188.1 509.8L188.1 509.8L188.1 520.1L184.7 520.1L184.7 510.2Q184.7 509.2 184.4 508.8Q184.1 508.4 183.5 508.4L183.5 508.4Q183.0 508.4 182.6 508.7Q182.2 509.1 182.2 509.8L182.2 509.8L182.2 520.1ZM204.7 511.7L206.8 505.6L211.1 505.6L204.3 522.4Q203.6 524.0 202.6 524.9Q201.5 525.7 199.6 525.7L199.6 525.7L196.8 525.7L196.8 522.5L200.3 522.5L201.2 520.0L195.3 505.6L199.8 505.6L201.9 511.7L203.2 515.9L203.4 515.9L204.7 511.7ZM219.8 520.4L219.8 520.4Q217.4 520.4 215.6 519.7Q213.9 519.0 213.0 517.7L213.0 517.7L215.3 515.6Q216.1 516.5 217.3 517.0Q218.4 517.5 219.9 517.5L219.9 517.5Q221.1 517.5 221.8 517.1Q222.5 516.8 222.5 516.0L222.5 516.0Q222.5 515.4 222.0 515.1Q221.5 514.9 220.7 514.7L220.7 514.7L218.4 514.4Q217.4 514.2 216.6 513.9Q215.7 513.7 215.1 513.1Q214.5 512.6 214.1 511.9Q213.8 511.2 213.8 510.2L213.8 510.2Q213.8 507.9 215.5 506.6Q217.2 505.3 220.4 505.3L220.4 505.3Q222.5 505.3 224.0 505.9Q225.5 506.5 226.4 507.5L226.4 507.5L224.3 509.9Q223.7 509.2 222.7 508.7Q221.7 508.2 220.2 508.2L220.2 508.2Q217.8 508.2 217.8 509.7L217.8 509.7Q217.8 510.3 218.3 510.6Q218.8 510.8 219.6 510.9L219.6 510.9L221.9 511.3Q222.9 511.4 223.7 511.7Q224.6 512.0 225.2 512.5Q225.8 513.0 226.2 513.8Q226.6 514.5 226.6 515.5L226.6 515.5Q226.6 517.8 224.8 519.1Q223.1 520.4 219.8 520.4ZM237.2 520.4L237.2 520.4Q233.6 520.4 231.7 518.4Q229.8 516.4 229.8 512.9L229.8 512.9Q229.8 511.2 230.3 509.7Q230.8 508.3 231.7 507.3Q232.6 506.3 233.9 505.8Q235.2 505.3 236.8 505.3L236.8 505.3Q238.5 505.3 239.7 505.8Q241.0 506.3 241.9 507.3Q242.8 508.2 243.3 509.6Q243.8 511.0 243.8 512.6L243.8 512.6L243.8 513.9L233.9 513.9L233.9 514.1Q233.9 515.5 234.8 516.4Q235.7 517.2 237.3 517.2L237.3 517.2Q238.6 517.2 239.5 516.7Q240.5 516.3 241.1 515.4L241.1 515.4L243.4 517.9Q242.5 518.9 241.0 519.7Q239.5 520.4 237.2 520.4ZM236.9 508.3L236.9 508.3Q235.5 508.3 234.7 509.1Q233.9 509.9 233.9 511.3L233.9 511.3L233.9 511.6L239.7 511.6L239.7 511.3Q239.7 509.9 239.0 509.1Q238.2 508.3 236.9 508.3ZM247.1 520.1L247.1 516.9L251.5 516.9L251.5 502.6L247.1 502.6L247.1 499.4L255.7 499.4L255.7 516.9L260.1 516.9L260.1 520.1L247.1 520.1ZM264.0 520.1L264.0 516.9L268.2 516.9L268.2 508.9L263.7 508.9L263.7 505.6L268.2 505.6L268.2 503.5Q268.2 501.7 269.3 500.5Q270.4 499.4 272.7 499.4L272.7 499.4L277.6 499.4L277.6 502.6L272.4 502.6L272.4 505.6L277.6 505.6L277.6 508.9L272.4 508.9L272.4 516.9L276.9 516.9L276.9 520.1L264.0 520.1Z " clip-path="url(#satori_cp-id-0-1-0-1-0-2)" mask="url(#satori_om-id-0-1-0-1-0-2)"/><clipPath id="satori_cp-id-0-1-0-1-1"><rect x="651" y="489" width="420" height="36"/></clipPath><mask id="satori_om-id-0-1-0-1-1"><rect x="651" y="489" width="420" height="36" fill="#fff"/></mask><path fill="black" d="M667.7 520.1L663.2 520.1L661.9 515.4L656.6 515.4L655.4 520.1L651.1 520.1L656.4 500.5L662.4 500.5L667.7 520.1ZM661.3 512.0L659.4 504.6L659.2 504.6L657.3 512.0L661.3 512.0ZM676.0 520.4L676.0 520.4Q673.6 520.4 671.8 519.7Q670.1 519.0 669.2 517.7L669.2 517.7L671.5 515.6Q672.3 516.5 673.5 517.0Q674.6 517.5 676.1 517.5L676.1 517.5Q677.3 517.5 678.0 517.1Q678.7 516.8 678.7 516.0L678.7 516.0Q678.7 515.4 678.2 515.1Q677.7 514.9 676.9 514.7L676.9 514.7L674.6 514.4Q673.6 514.2 672.8 513.9Q671.9 513.7 671.3 513.1Q670.7 512.6 670.3 511.9Q670.0 511.2 670.0 510.2L670.0 510.2Q670.0 507.9 671.7 506.6Q673.4 505.3 676.6 505.3L676.6 505.3Q678.7 505.3 680.2 505.9Q681.7 506.5 682.6 507.5L682.6 507.5L680.5 509.9Q679.9 509.2 678.9 508.7Q677.9 508.2 676.4 508.2L676.4 508.2Q674.0 508.2 674.0 509.7L674.0 509.7Q674.0 510.3 674.5 510.6Q675.0 510.8 675.8 510.9L675.8 510.9L678.1 511.3Q679.1 511.4 679.9 511.7Q680.8 512.0 681.4 512.5Q682.0 513.0 682.4 513.8Q682.8 514.5 682.8 515.5L682.8 515.5Q682.8 517.8 681.0 519.1Q679.3 520.4 676.0 520.4ZM699.5 520.1L694.1 520.1Q691.9 520.1 690.8 518.9Q689.7 517.7 689.7 515.9L689.7 515.9L689.7 508.9L685.8 508.9L685.8 505.6L688.3 505.6Q689.2 505.6 689.6 505.3Q690.0 504.9 690.0 503.9L690.0 503.9L690.0 500.5L693.8 500.5L693.8 505.6L699.5 505.6L699.5 508.9L693.8 508.9L693.8 516.9L699.5 516.9L699.5 520.1ZM703.5 520.1L703.5 516.9L706.8 516.9L706.8 508.9L703.5 508.9L703.5 505.6L710.9 505.6L710.9 509.7L711.1 509.7Q711.3 508.9 711.7 508.2Q712.0 507.5 712.6 506.9Q713.1 506.3 713.9 506.0Q714.7 505.6 715.8 505.6L715.8 505.6L717.1 505.6L717.1 509.5L714.1 509.5Q712.5 509.5 711.7 510.4Q710.9 511.3 710.9 512.6L710.9 512.6L710.9 516.9L715.7 516.9L715.7 520.1L703.5 520.1ZM726.6 520.4L726.6 520.4Q724.9 520.4 723.6 519.9Q722.2 519.4 721.3 518.4Q720.4 517.4 719.9 516.0Q719.3 514.6 719.3 512.9L719.3 512.9Q719.3 511.1 719.9 509.7Q720.4 508.3 721.3 507.3Q722.2 506.3 723.6 505.8Q724.9 505.3 726.6 505.3L726.6 505.3Q728.3 505.3 729.6 505.8Q731.0 506.3 731.9 507.3Q732.8 508.3 733.3 509.7Q733.9 511.1 733.9 512.9L733.9 512.9Q733.9 514.6 733.3 516.0Q732.8 517.4 731.9 518.4Q731.0 519.4 729.6 519.9Q728.3 520.4 726.6 520.4ZM726.6 517.3L726.6 517.3Q728.0 517.3 728.8 516.5Q729.6 515.6 729.6 514.0L729.6 514.0L729.6 511.7Q729.6 510.1 728.8 509.3Q728.0 508.4 726.6 508.4L726.6 508.4Q725.2 508.4 724.4 509.3Q723.6 510.1 723.6 511.7L723.6 511.7L723.6 514.0Q723.6 515.6 724.4 516.5Q725.2 517.3 726.6 517.3Z M753.7 520.1L752.0 505.6L755.4 505.6L756.5 517.3L756.8 517.3L758.5 505.6L762.1 505.6L763.8 517.3L764.1 517.3L765.1 505.6L768.4 505.6L766.7 520.1L761.8 520.1L760.3 510.1L760.1 510.1L758.6 520.1L753.7 520.1ZM777.9 503.8L777.9 503.8Q776.5 503.8 775.9 503.2Q775.4 502.6 775.4 501.8L775.4 501.8L775.4 501.0Q775.4 500.2 775.9 499.6Q776.5 499.1 777.9 499.1L777.9 499.1Q779.3 499.1 779.8 499.6Q780.4 500.2 780.4 501.0L780.4 501.0L780.4 501.8Q780.4 502.6 779.8 503.2Q779.3 503.8 777.9 503.8ZM771.2 520.1L771.2 516.9L775.8 516.9L775.8 508.9L771.2 508.9L771.2 505.6L780.0 505.6L780.0 516.9L784.2 516.9L784.2 520.1L771.2 520.1ZM800.3 520.1L794.9 520.1Q792.7 520.1 791.6 518.9Q790.5 517.7 790.5 515.9L790.5 515.9L790.5 508.9L786.6 508.9L786.6 505.6L789.1 505.6Q790.0 505.6 790.4 505.3Q790.8 504.9 790.8 503.9L790.8 503.9L790.8 500.5L794.6 500.5L794.6 505.6L800.3 505.6L800.3 508.9L794.6 508.9L794.6 516.9L800.3 516.9L800.3 520.1ZM804.0 520.1L804.0 499.4L808.2 499.4L808.2 508.3L808.3 508.3Q808.6 507.7 808.9 507.1Q809.3 506.6 809.8 506.2Q810.3 505.8 811.0 505.5Q811.7 505.3 812.6 505.3L812.6 505.3Q813.6 505.3 814.5 505.7Q815.4 506.0 816.0 506.7Q816.6 507.4 816.9 508.4Q817.3 509.4 817.3 510.7L817.3 510.7L817.3 520.1L813.1 520.1L813.1 511.3Q813.1 508.5 810.7 508.5L810.7 508.5Q810.2 508.5 809.8 508.6Q809.3 508.8 808.9 509.0Q808.6 509.3 808.4 509.7Q808.2 510.1 808.2 510.6L808.2 510.6L808.2 520.1L804.0 520.1Z M842.1 512.8L842.1 520.1L837.9 520.1L837.9 500.5L845.5 500.5Q846.9 500.5 848.0 501.0Q849.2 501.4 849.9 502.2Q850.7 503.0 851.1 504.2Q851.5 505.3 851.5 506.8L851.5 506.8Q851.5 508.8 850.6 510.3Q849.7 511.8 848.0 512.3L848.0 512.3L851.9 520.1L847.3 520.1L844.0 512.8L842.1 512.8ZM842.1 509.6L844.5 509.6Q846.0 509.6 846.5 509.0Q847.1 508.5 847.1 507.2L847.1 507.2L847.1 506.3Q847.1 505.1 846.5 504.5Q846.0 503.9 844.5 503.9L844.5 503.9L842.1 503.9L842.1 509.6ZM861.4 520.4L861.4 520.4Q857.8 520.4 855.9 518.4Q854.0 516.4 854.0 512.9L854.0 512.9Q854.0 511.2 854.5 509.7Q855.0 508.3 855.9 507.3Q856.8 506.3 858.1 505.8Q859.4 505.3 861.0 505.3L861.0 505.3Q862.7 505.3 863.9 505.8Q865.2 506.3 866.1 507.3Q867.0 508.2 867.5 509.6Q868.0 511.0 868.0 512.6L868.0 512.6L868.0 513.9L858.1 513.9L858.1 514.1Q858.1 515.5 859.0 516.4Q859.9 517.2 861.5 517.2L861.5 517.2Q862.8 517.2 863.7 516.7Q864.7 516.3 865.3 515.4L865.3 515.4L867.6 517.9Q866.7 518.9 865.2 519.7Q863.7 520.4 861.4 520.4ZM861.1 508.3L861.1 508.3Q859.7 508.3 858.9 509.1Q858.1 509.9 858.1 511.3L858.1 511.3L858.1 511.6L863.9 511.6L863.9 511.3Q863.9 509.9 863.2 509.1Q862.4 508.3 861.1 508.3ZM873.6 520.1L870.2 520.1L870.2 505.6L873.6 505.6L873.6 507.8L873.8 507.8Q874.1 506.8 874.7 506.0Q875.4 505.3 876.5 505.3L876.5 505.3Q878.6 505.3 879.1 507.8L879.1 507.8L879.3 507.8Q879.4 507.3 879.7 506.8Q879.9 506.4 880.3 506.0Q880.7 505.7 881.2 505.5Q881.7 505.3 882.3 505.3L882.3 505.3Q885.4 505.3 885.4 509.8L885.4 509.8L885.4 520.1L882.0 520.1L882.0 510.2Q882.0 509.2 881.7 508.8Q881.3 508.4 880.8 508.4L880.8 508.4Q880.2 508.4 879.9 508.7Q879.5 509.1 879.5 509.8L879.5 509.8L879.5 520.1L876.1 520.1L876.1 510.2Q876.1 509.2 875.8 508.8Q875.5 508.4 874.9 508.4L874.9 508.4Q874.4 508.4 874.0 508.7Q873.6 509.1 873.6 509.8L873.6 509.8L873.6 520.1ZM902.2 520.1L899.8 520.1Q898.5 520.1 897.8 519.4Q897.0 518.8 896.8 517.5L896.8 517.5L896.7 517.5Q896.3 519.0 895.1 519.7Q894.0 520.4 892.3 520.4L892.3 520.4Q890.2 520.4 888.9 519.3Q887.7 518.2 887.7 516.1L887.7 516.1Q887.7 513.8 889.3 512.8Q891.0 511.7 894.2 511.7L894.2 511.7L896.5 511.7L896.5 510.9Q896.5 509.6 895.9 509.0Q895.3 508.3 893.8 508.3L893.8 508.3Q892.5 508.3 891.7 508.8Q890.9 509.3 890.3 510.2L890.3 510.2L888.0 508.1Q888.8 506.9 890.3 506.1Q891.9 505.3 894.3 505.3L894.3 505.3Q897.3 505.3 899.0 506.7Q900.6 508.0 900.6 510.8L900.6 510.8L900.6 517.1L902.2 517.1L902.2 520.1ZM893.9 517.7L893.9 517.7Q895.0 517.7 895.7 517.2Q896.5 516.6 896.5 515.6L896.5 515.6L896.5 513.9L894.3 513.9Q891.7 513.9 891.7 515.6L891.7 515.6L891.7 516.2Q891.7 516.9 892.3 517.3Q892.9 517.7 893.9 517.7ZM905.1 520.1L905.1 516.9L908.4 516.9L908.4 508.9L905.1 508.9L905.1 505.6L912.5 505.6L912.5 509.7L912.7 509.7Q912.9 508.9 913.3 508.2Q913.6 507.5 914.2 506.9Q914.7 506.3 915.5 506.0Q916.3 505.6 917.4 505.6L917.4 505.6L918.7 505.6L918.7 509.5L915.7 509.5Q914.1 509.5 913.3 510.4Q912.5 511.3 912.5 512.6L912.5 512.6L912.5 516.9L917.3 516.9L917.3 520.1L905.1 520.1ZM921.6 520.1L921.6 499.4L925.8 499.4L925.8 511.1L926.0 511.1L927.9 508.9L930.9 505.6L935.7 505.6L930.1 511.4L936.3 520.1L931.3 520.1L927.1 513.7L925.8 515.1L925.8 520.1L921.6 520.1Z M959.8 520.1L955.5 520.1L955.5 500.5L963.1 500.5Q964.5 500.5 965.6 501.0Q966.8 501.4 967.5 502.2Q968.3 503.0 968.7 504.2Q969.1 505.3 969.1 506.8L969.1 506.8Q969.1 508.2 968.7 509.3Q968.3 510.5 967.5 511.3Q966.8 512.1 965.6 512.5Q964.5 513.0 963.1 513.0L963.1 513.0L959.8 513.0L959.8 520.1ZM959.8 503.9L959.8 509.6L962.0 509.6Q963.5 509.6 964.1 509.0Q964.7 508.5 964.7 507.2L964.7 507.2L964.7 506.3Q964.7 505.1 964.1 504.5Q963.5 503.9 962.0 503.9L962.0 503.9L959.8 503.9ZM972.1 520.1L972.1 516.9L976.5 516.9L976.5 502.6L972.1 502.6L972.1 499.4L980.7 499.4L980.7 516.9L985.1 516.9L985.1 520.1L972.1 520.1ZM997.8 520.1L997.8 517.5L997.7 517.5Q997.2 518.7 996.2 519.6Q995.1 520.4 993.4 520.4L993.4 520.4Q992.4 520.4 991.5 520.1Q990.6 519.7 990.0 519.0Q989.4 518.3 989.1 517.3Q988.7 516.3 988.7 515.0L988.7 515.0L988.7 505.6L992.9 505.6L992.9 514.4Q992.9 517.2 995.3 517.2L995.3 517.2Q995.8 517.2 996.2 517.1Q996.7 517.0 997.0 516.7Q997.4 516.5 997.6 516.1Q997.8 515.7 997.8 515.1L997.8 515.1L997.8 505.6L1002.0 505.6L1002.0 520.1L997.8 520.1ZM1020.1 521.5L1020.1 521.5Q1020.1 523.8 1018.2 524.9Q1016.3 526.0 1012.1 526.0L1012.1 526.0Q1010.0 526.0 1008.7 525.8Q1007.4 525.6 1006.6 525.1Q1005.8 524.7 1005.4 524.0Q1005.1 523.4 1005.1 522.7L1005.1 522.7Q1005.1 521.5 1005.8 520.8Q1006.6 520.2 1007.9 519.9L1007.9 519.9L1007.9 519.7Q1007.0 519.4 1006.4 518.9Q1005.9 518.4 1005.9 517.4L1005.9 517.4Q1005.9 516.4 1006.6 515.9Q1007.3 515.4 1008.5 515.1L1008.5 515.1L1008.5 514.9Q1007.2 514.3 1006.5 513.2Q1005.8 512.1 1005.8 510.5L1005.8 510.5Q1005.8 509.2 1006.2 508.2Q1006.7 507.3 1007.5 506.6Q1008.3 506.0 1009.5 505.6Q1010.6 505.3 1012.0 505.3L1012.0 505.3Q1013.4 505.3 1014.6 505.6L1014.6 505.6L1014.6 504.8Q1014.6 504.0 1015.2 503.4Q1015.8 502.9 1016.8 502.9L1016.8 502.9L1019.3 502.9L1019.3 505.9L1015.9 505.9L1015.9 506.1Q1017.0 506.8 1017.7 507.8Q1018.4 508.9 1018.4 510.5L1018.4 510.5Q1018.4 511.7 1017.9 512.7Q1017.5 513.6 1016.6 514.3Q1015.8 514.9 1014.6 515.3Q1013.5 515.6 1012.0 515.6L1012.0 515.6Q1011.4 515.6 1010.8 515.5Q1010.2 515.5 1009.7 515.3L1009.7 515.3Q1009.4 515.5 1009.2 515.8Q1009.0 516.0 1009.0 516.4L1009.0 516.4Q1009.0 516.7 1009.1 516.9Q1009.3 517.1 1009.6 517.2Q1009.9 517.3 1010.3 517.3Q1010.7 517.4 1011.1 517.4L1011.1 517.4L1014.4 517.4Q1015.9 517.4 1017.0 517.7Q1018.1 518.0 1018.8 518.6Q1019.5 519.1 1019.8 519.9Q1020.1 520.6 1020.1 521.5ZM1016.2 521.9L1016.2 521.9Q1016.2 521.3 1015.8 521.0Q1015.3 520.7 1014.0 520.7L1014.0 520.7L1009.1 520.7Q1008.5 521.1 1008.5 521.8L1008.5 521.8Q1008.5 522.5 1009.1 522.9Q1009.7 523.4 1011.1 523.4L1011.1 523.4L1013.5 523.4Q1014.9 523.4 1015.6 523.0Q1016.2 522.6 1016.2 521.9ZM1012.0 513.0L1012.0 513.0Q1013.3 513.0 1013.9 512.4Q1014.4 511.7 1014.4 510.8L1014.4 510.8L1014.4 510.1Q1014.4 509.2 1013.9 508.6Q1013.3 507.9 1012.0 507.9L1012.0 507.9Q1010.8 507.9 1010.2 508.6Q1009.7 509.2 1009.7 510.1L1009.7 510.1L1009.7 510.8Q1009.7 511.7 1010.2 512.4Q1010.8 513.0 1012.0 513.0ZM1029.9 503.8L1029.9 503.8Q1028.5 503.8 1027.9 503.2Q1027.4 502.6 1027.4 501.8L1027.4 501.8L1027.4 501.0Q1027.4 500.2 1027.9 499.6Q1028.5 499.1 1029.9 499.1L1029.9 499.1Q1031.3 499.1 1031.8 499.6Q1032.4 500.2 1032.4 501.0L1032.4 501.0L1032.4 501.8Q1032.4 502.6 1031.8 503.2Q1031.3 503.8 1029.9 503.8ZM1023.2 520.1L1023.2 516.9L1027.8 516.9L1027.8 508.9L1023.2 508.9L1023.2 505.6L1032.0 505.6L1032.0 516.9L1036.2 516.9L1036.2 520.1L1023.2 520.1ZM1043.4 520.1L1039.2 520.1L1039.2 505.6L1043.4 505.6L1043.4 508.3L1043.5 508.3Q1043.8 507.7 1044.1 507.1Q1044.5 506.6 1045.0 506.2Q1045.5 505.8 1046.2 505.5Q1046.9 505.3 1047.8 505.3L1047.8 505.3Q1048.8 505.3 1049.7 505.7Q1050.6 506.0 1051.2 506.7Q1051.8 507.4 1052.1 508.4Q1052.5 509.4 1052.5 510.7L1052.5 510.7L1052.5 520.1L1048.3 520.1L1048.3 511.3Q1048.3 508.5 1045.9 508.5L1045.9 508.5Q1045.4 508.5 1045.0 508.6Q1044.5 508.8 1044.1 509.0Q1043.8 509.3 1043.6 509.7Q1043.4 510.1 1043.4 510.6L1043.4 510.6L1043.4 520.1ZM1062.4 520.4L1062.4 520.4Q1060.0 520.4 1058.2 519.7Q1056.5 519.0 1055.6 517.7L1055.6 517.7L1057.9 515.6Q1058.7 516.5 1059.9 517.0Q1061.0 517.5 1062.5 517.5L1062.5 517.5Q1063.7 517.5 1064.4 517.1Q1065.1 516.8 1065.1 516.0L1065.1 516.0Q1065.1 515.4 1064.6 515.1Q1064.1 514.9 1063.3 514.7L1063.3 514.7L1061.0 514.4Q1060.0 514.2 1059.2 513.9Q1058.3 513.7 1057.7 513.1Q1057.1 512.6 1056.7 511.9Q1056.4 511.2 1056.4 510.2L1056.4 510.2Q1056.4 507.9 1058.1 506.6Q1059.8 505.3 1063.0 505.3L1063.0 505.3Q1065.1 505.3 1066.6 505.9Q1068.1 506.5 1069.0 507.5L1069.0 507.5L1066.9 509.9Q1066.3 509.2 1065.3 508.7Q1064.3 508.2 1062.8 508.2L1062.8 508.2Q1060.4 508.2 1060.4 509.7L1060.4 509.7Q1060.4 510.3 1060.9 510.6Q1061.4 510.8 1062.2 510.9L1062.2 510.9L1064.5 511.3Q1065.5 511.4 1066.3 511.7Q1067.2 512.0 1067.8 512.5Q1068.4 513.0 1068.8 513.8Q1069.2 514.5 1069.2 515.5L1069.2 515.5Q1069.2 517.8 1067.4 519.1Q1065.7 520.4 1062.4 520.4Z " clip-path="url(#satori_cp-id-0-1-0-1-1)" mask="url(#satori_om-id-0-1-0-1-1)"/></svg>